<svg xmlns="http://www.w3.org/2000/svg" viewBox="0 0 100 100"><rect width="100" height="100" rx="22" fill="#161220"/><radialGradient id="tg" cx="50" cy="50" r="18" gradientUnits="userSpaceOnUse"><stop offset="0%" stop-color="#E0D4C4" stop-opacity="0.18"/><stop offset="100%" stop-color="#E0D4C4" stop-opacity="0"/></radialGradient><circle cx="50" cy="50" r="18" fill="url(#tg)"/><path d="M16 50 Q20 30, 38 28 Q56 26, 50 50" fill="none" stroke="#D8C4AA" stroke-width="1.5" stroke-linecap="round" opacity="0.8"/><path d="M16 50 Q20 30, 38 28 Q56 26, 50 50" fill="none" stroke="#D8C4AA" stroke-width="4.5" stroke-linecap="round" opacity="0.06"/><circle cx="17" cy="50" r="2" fill="#D8C4AA" opacity="0.6"/><path d="M84 50 Q80 70, 62 72 Q44 74, 50 50" fill="none" stroke="#AAB8D0" stroke-width="1.5" stroke-linecap="round" opacity="0.8"/><path d="M84 50 Q80 70, 62 72 Q44 74, 50 50" fill="none" stroke="#AAB8D0" stroke-width="4.5" stroke-linecap="round" opacity="0.06"/><circle cx="83" cy="50" r="2" fill="#AAB8D0" opacity="0.6"/><circle cx="50" cy="50" r="3" fill="#F2EAE0" opacity="0.9"/><radialGradient id="ig" cx="50" cy="50" r="10" gradientUnits="userSpaceOnUse"><stop offset="0%" stop-color="#F2EAE0" stop-opacity="0.25"/><stop offset="100%" stop-color="#F2EAE0" stop-opacity="0"/></radialGradient><circle cx="50" cy="50" r="10" fill="url(#ig)"/><circle cx="30" cy="34" r="0.5" fill="#D8C4AA" opacity="0.25"/><circle cx="70" cy="66" r="0.5" fill="#AAB8D0" opacity="0.25"/></svg>
